{
  "accessors": [
    {
      "bufferView": 2,
      "componentType": 5126,
      "count": 58529,
      "max": [
        6.477685451507568,
        5.778465747833252,
        8.467059135437012
      ],
      "min": [
        -6.481696128845215,
        0.05158476158976555,
        -7.433570861816406
      ],
      "type": "VEC3"
    },
    {
      "bufferView": 2,
      "byteOffset": 702348,
      "componentType": 5126,
      "count": 58529,
      "max": [
        1.0,
        1.0,
        1.0
      ],
      "min": [
        -1.0,
        -1.0,
        -1.0
      ],
      "type": "VEC3"
    },
    {
      "bufferView": 1,
      "componentType": 5126,
      "count": 58529,
      "max": [
        0.9970998764038086,
        0.997100293636322
      ],
      "min": [
        0.0029001072980463505,
        0.002899765968322754
      ],
      "type": "VEC2"
    },
    {
      "bufferView": 0,
      "componentType": 5125,
      "count": 90861,
      "type": "SCALAR"
    }
  ],
  "asset": {
    "extras": {
      "author": "freakering (https://sketchfab.com/francescoriccardi)",
      "license": "CC-BY-4.0 (http://creativecommons.org/licenses/by/4.0/)",
      "source": "https://sketchfab.com/3d-models/inside-drone-d38af0afb72343f69eed6da6457df11b",
      "title": "Inside Drone"
    },
    "generator": "Sketchfab-15.57.0",
    "version": "2.0"
  },
  "bufferViews": [
    {
      "buffer": 0,
      "byteLength": 363444,
      "name": "floatBufferViews",
      "target": 34963
    },
    {
      "buffer": 0,
      "byteLength": 468232,
      "byteOffset": 363444,
      "byteStride": 8,
      "name": "floatBufferViews",
      "target": 34962
    },
    {
      "buffer": 0,
      "byteLength": 1404696,
      "byteOffset": 831676,
      "byteStride": 12,
      "name": "floatBufferViews",
      "target": 34962
    }
  ],
  "buffers": [
    {
      "byteLength": 2236372,
      "uri": "scene.bin"
    }
  ],
  "images": [
    {
      "uri": "textures/Drone01_baseColor.jpeg"
    }
  ],
  "materials": [
    {
      "doubleSided": true,
      "name": "Drone01",
      "pbrMetallicRoughness": {
        "baseColorTexture": {
          "index": 0
        },
        "metallicFactor": 0.5474126970203954,
        "roughnessFactor": 0.3006688770975663
      }
    }
  ],
  "meshes": [
    {
      "name": "Drone01_Drone01_0",
      "primitives": [
        {
          "attributes": {
            "NORMAL": 1,
            "POSITION": 0,
            "TEXCOORD_0": 2
          },
          "indices": 3,
          "material": 0,
          "mode": 4
        }
      ]
    }
  ],
  "nodes": [
    {
      "children": [
        1
      ],
      "matrix": [
        1.0,
        0.0,
        0.0,
        0.0,
        0.0,
        2.220446049250313e-16,
        -1.0,
        0.0,
        0.0,
        1.0,
        2.220446049250313e-16,
        0.0,
        0.0,
        0.0,
        0.0,
        1.0
      ],
      "name": "Sketchfab_model"
    },
    {
      "children": [
        2
      ],
      "matrix": [
        0.009999999776482582,
        0.0,
        0.0,
        0.0,
        0.0,
        0.0,
        0.009999999776482582,
        0.0,
        0.0,
        -0.009999999776482582,
        0.0,
        0.0,
        0.0,
        0.0,
        0.0,
        1.0
      ],
      "name": "39b26267ec2840189ac2e488c7062e62.fbx"
    },
    {
      "children": [
        3
      ],
      "name": "RootNode"
    },
    {
      "children": [
        4
      ],
      "name": "Drone01"
    },
    {
      "mesh": 0,
      "name": "Drone01_Drone01_0"
    }
  ],
  "samplers": [
    {
      "magFilter": 9729,
      "minFilter": 9987,
      "wrapS": 10497,
      "wrapT": 10497
    }
  ],
  "scene": 0,
  "scenes": [
    {
      "name": "Sketchfab_Scene",
      "nodes": [
        0
      ]
    }
  ],
  "textures": [
    {
      "sampler": 0,
      "source": 0
    }
  ]
}
